<svg width="14" height="17" viewBox="0 0 14 17" fill="none" xmlns="http://www.w3.org/2000/svg">
<path fill-rule="evenodd" clip-rule="evenodd" d="M8.18605 0.504718C8.13995 0.501584 8.0936 0.5 8.04707 0.5H3.53488C1.58262 0.5 0 2.08262 0 4.03488V12.9651C0 14.9174 1.58262 16.5 3.53488 16.5H9.48837C11.4406 16.5 13.0233 14.9174 13.0233 12.9651V6.0814H10.2326C9.1023 6.0814 8.18605 5.16514 8.18605 4.03488V0.504718ZM2.97674 8.5C2.97674 8.19175 3.22663 7.94186 3.53488 7.94186H9.48837C9.79662 7.94186 10.0465 8.19175 10.0465 8.5C10.0465 8.80825 9.79662 9.05814 9.48837 9.05814H3.53488C3.22663 9.05814 2.97674 8.80825 2.97674 8.5ZM3.53488 11.6628C3.22663 11.6628 2.97674 11.9127 2.97674 12.2209C2.97674 12.5292 3.22663 12.7791 3.53488 12.7791H6.51163C6.81988 12.7791 7.06977 12.5292 7.06977 12.2209C7.06977 11.9127 6.81988 11.6628 6.51163 11.6628H3.53488Z" fill="#4245D1"/>
<path d="M12.7044 4.96512C12.6574 4.89114 12.6055 4.81992 12.5489 4.75198L9.61924 1.23637C9.52406 1.12214 9.41766 1.01972 9.30233 0.930155V4.03488C9.30233 4.54864 9.7188 4.96512 10.2326 4.96512H12.7044Z" fill="#4245D1"/>
</svg>
