<svg width="15" height="13" viewBox="0 0 15 13" fill="none" xmlns="http://www.w3.org/2000/svg">
<path d="M15 5V9.5C15 10.2956 14.6839 11.0587 14.1213 11.6213C13.5587 12.1839 12.7956 12.5 12 12.5H3C2.20435 12.5 1.44129 12.1839 0.87868 11.6213C0.316071 11.0587 0 10.2956 0 9.5V5H15ZM3.7575 8H3.75C3.65151 8.00049 3.55408 8.02038 3.46327 8.05853C3.37247 8.09667 3.29006 8.15233 3.22077 8.22232C3.08082 8.36368 3.00276 8.55484 3.00375 8.75375C3.00424 8.85224 3.02413 8.94967 3.06228 9.04048C3.10042 9.13128 3.15608 9.21369 3.22607 9.28298C3.29606 9.35228 3.37902 9.40711 3.4702 9.44434C3.56138 9.48158 3.65901 9.50049 3.7575 9.5C3.95641 9.5 4.14718 9.42098 4.28783 9.28033C4.42848 9.13968 4.5075 8.94891 4.5075 8.75C4.5075 8.55109 4.42848 8.36032 4.28783 8.21967C4.14718 8.07902 3.95641 8 3.7575 8ZM8.25 8H6.75C6.55109 8 6.36032 8.07902 6.21967 8.21967C6.07902 8.36032 6 8.55109 6 8.75C6 8.94891 6.07902 9.13968 6.21967 9.28033C6.36032 9.42098 6.55109 9.5 6.75 9.5H8.25C8.44891 9.5 8.63968 9.42098 8.78033 9.28033C8.92098 9.13968 9 8.94891 9 8.75C9 8.55109 8.92098 8.36032 8.78033 8.21967C8.63968 8.07902 8.44891 8 8.25 8ZM12 0.5C12.7956 0.5 13.5587 0.81607 14.1213 1.37868C14.6839 1.94129 15 2.70435 15 3.5H0C0 2.70435 0.316071 1.94129 0.87868 1.37868C1.44129 0.81607 2.20435 0.5 3 0.5H12Z" fill="#2944A5"/>
</svg>
