<svg width="20" height="20" viewBox="0 0 20 20" fill="none" xmlns="http://www.w3.org/2000/svg">
<path d="M10.0001 14.23L10.0001 13.23H10.0001V14.23ZM6.1601 5.04004C3.08939 5.04004 0.600098 7.52934 0.600098 10.6H2.6001C2.6001 8.63391 4.19396 7.04004 6.1601 7.04004V5.04004ZM13.8401 5.04004H6.1601V7.04004H13.8401V5.04004ZM19.4001 10.6C19.4001 7.52934 16.9108 5.04004 13.8401 5.04004V7.04004C15.8062 7.04004 17.4001 8.63391 17.4001 10.6H19.4001ZM19.4001 14.44V10.6H17.4001V14.44H19.4001ZM13.8401 20C16.9108 20 19.4001 17.5107 19.4001 14.44H17.4001C17.4001 16.4062 15.8062 18 13.8401 18V20ZM6.1601 20H13.8401V18H6.1601V20ZM0.600098 14.44C0.600098 17.5107 3.08939 20 6.1601 20V18C4.19396 18 2.6001 16.4062 2.6001 14.44H0.600098ZM0.600098 10.6V14.44H2.6001V10.6H0.600098ZM10.0001 11.81C9.86203 11.81 9.7501 11.6981 9.7501 11.56H11.7501C11.7501 10.5935 10.9666 9.81 10.0001 9.81V11.81ZM10.2501 11.56C10.2501 11.6981 10.1382 11.81 10.0001 11.81V9.81C9.0336 9.81 8.2501 10.5935 8.2501 11.56H10.2501ZM10.2501 13.48V11.56H8.2501V13.48H10.2501ZM10.0001 13.23C10.1382 13.23 10.2501 13.3419 10.2501 13.48H8.2501C8.2501 14.4465 9.0336 15.23 10.0001 15.23V13.23ZM9.7501 13.48C9.7501 13.3419 9.86203 13.23 10.0001 13.23L10.0001 15.23C10.9666 15.23 11.7501 14.4465 11.7501 13.48H9.7501ZM9.7501 11.56V13.48H11.7501V11.56H9.7501Z" fill="white"/>
<path d="M13.8402 6.76V4.84C13.8402 2.71923 12.1209 1 10.0002 1V1C7.87938 1 6.16016 2.71923 6.16016 4.84L6.16016 6.76" stroke="white" stroke-width="2"/>
</svg>
