<svg width="23" height="22" viewBox="0 0 23 22" fill="none" xmlns="http://www.w3.org/2000/svg">
<path d="M2.56055 3.56254C2.56055 2.19404 3.67121 1.08337 5.03971 1.08337H11.4147C12.7832 1.08337 13.8939 2.19404 13.8939 3.56254V4.33179L18.1085 8.54637C18.5689 9.00683 18.9341 9.55347 19.1832 10.1551C19.4324 10.7567 19.5606 11.4015 19.5605 12.0526V20.2084C19.5605 20.3962 19.4859 20.5764 19.3531 20.7092C19.2202 20.8421 19.0401 20.9167 18.8522 20.9167C18.6644 20.9167 18.4842 20.8421 18.3513 20.7092C18.2185 20.5764 18.1439 20.3962 18.1439 20.2084V12.0526C18.144 11.5875 18.0524 11.1269 17.8745 10.6971C17.6966 10.2674 17.4357 9.8769 17.1069 9.54796L13.8939 6.33496V9.99704L15.1037 11.2069C15.2367 11.3397 15.3115 11.5199 15.3116 11.7079C15.3118 11.8958 15.2372 12.0762 15.1044 12.2092C14.9716 12.3422 14.7914 12.417 14.6034 12.4171C14.4155 12.4172 14.2351 12.3427 14.1021 12.2099L11.2277 9.33404L10.6667 8.84387C10.4451 8.73034 10.1902 8.69963 9.94796 8.75729C9.70571 8.81495 9.49199 8.95718 9.34527 9.15838C9.19855 9.35959 9.12847 9.60655 9.14763 9.85483C9.16679 10.1031 9.27394 10.3364 9.4498 10.5127L11.562 12.6235C11.628 12.6893 11.6804 12.7675 11.7161 12.8535C11.7519 12.9396 11.7703 13.0319 11.7703 13.125V14.5417C11.7703 14.9174 11.9196 15.2778 12.1852 15.5434C12.4509 15.8091 12.8112 15.9584 13.187 15.9584C13.3746 15.9587 13.5544 16.0335 13.6869 16.1663C13.8194 16.2991 13.8939 16.4791 13.8939 16.6667V18.4375C13.8939 19.0951 13.6327 19.7256 13.1677 20.1906C12.7028 20.6555 12.0722 20.9167 11.4147 20.9167H5.03971C4.3822 20.9167 3.75161 20.6555 3.28668 20.1906C2.82174 19.7256 2.56055 19.0951 2.56055 18.4375V3.56254ZM12.4772 17.7292V17.2858C12.0653 17.1793 11.6827 16.9813 11.358 16.7064C10.875 16.8016 10.44 17.0615 10.1273 17.4419C9.81466 17.8222 9.64378 18.2994 9.64388 18.7917V19.5H10.7064C10.8282 19.5 10.9472 19.4873 11.0605 19.4646V18.7917C11.0605 18.6038 11.1352 18.4237 11.268 18.2908C11.4009 18.158 11.581 18.0834 11.7689 18.0834H12.4418C12.4645 17.97 12.4772 17.851 12.4772 17.7292ZM10.0788 13.1449L8.44963 11.5143C8.00974 11.0755 7.75199 10.4867 7.72808 9.8658C7.70417 9.24495 7.91587 8.63801 8.32071 8.16671H8.22721C7.77006 8.16675 7.31971 8.2774 6.9146 8.48923C6.50949 8.70105 6.16164 9.00776 5.90076 9.38316C5.63989 9.75857 5.47372 10.1915 5.41645 10.6451C5.35917 11.0986 5.41249 11.5593 5.57186 11.9878C5.73123 12.4162 5.9919 12.7998 6.33164 13.1057C6.67138 13.4116 7.08009 13.6307 7.52288 13.7444C7.96567 13.8581 8.42939 13.8629 8.87446 13.7585C9.31953 13.6541 9.73273 13.4436 10.0788 13.1449ZM6.81055 3.20837V2.50004H5.74805C5.62621 2.50004 5.50721 2.51279 5.39388 2.53546V3.20837C5.39388 3.39624 5.31925 3.5764 5.18641 3.70924C5.05358 3.84208 4.87341 3.91671 4.68555 3.91671H4.01263C3.98996 4.03004 3.97721 4.14904 3.97721 4.27087V5.33337H4.68555C5.24913 5.33337 5.78963 5.10949 6.18815 4.71098C6.58666 4.31246 6.81055 3.77196 6.81055 3.20837ZM4.68555 16.6667H3.97721V17.7292C3.97721 17.851 3.98996 17.97 4.01263 18.0834H4.68555C4.87341 18.0834 5.05358 18.158 5.18641 18.2908C5.31925 18.4237 5.39388 18.6038 5.39388 18.7917V19.4646C5.50721 19.4873 5.62621 19.5 5.74805 19.5H6.81055V18.7917C6.81055 18.2281 6.58666 17.6876 6.18815 17.2891C5.78963 16.8906 5.24913 16.6667 4.68555 16.6667ZM11.0605 3.20837V2.53546C10.944 2.51184 10.8253 2.49998 10.7064 2.50004H9.64388V3.20837C9.64388 3.77196 9.86776 4.31246 10.2663 4.71098C10.6648 5.10949 11.2053 5.33337 11.7689 5.33337H12.4772V4.27087C12.4772 4.14904 12.4645 4.03004 12.4418 3.91671H11.7689C11.581 3.91671 11.4009 3.84208 11.268 3.70924C11.1352 3.5764 11.0605 3.39624 11.0605 3.20837Z" fill="#4245D1"/>
</svg>
