<svg width="22" height="23" viewBox="0 0 22 23" fill="none" xmlns="http://www.w3.org/2000/svg">
<path fill-rule="evenodd" clip-rule="evenodd" d="M5.84851 2.91663C3.43018 2.91663 1.46973 4.87708 1.46973 7.29541V15.5378C1.46973 17.9562 3.43018 19.9166 5.84851 19.9166H16.1515C18.5699 19.9166 20.5303 17.9562 20.5303 15.5378V10.9015C20.5303 8.48314 18.5699 6.52269 16.1515 6.52269H13.621C12.3732 6.52269 11.2022 5.92009 10.477 4.90474C9.60364 3.68204 9.00596 2.91663 7.86394 2.91663H5.84851ZM11 15.2803C10.5733 15.2803 10.2273 15.6262 10.2273 16.053C10.2273 16.4798 10.5733 16.8257 11 16.8257H17.1818C17.6086 16.8257 17.9546 16.4798 17.9546 16.053C17.9546 15.6262 17.6086 15.2803 17.1818 15.2803H11Z" fill="#4245D1"/>
<path d="M9.96973 4.21586V7.81056H19.2532C18.4603 7.01501 17.3634 6.52269 16.1515 6.52269H13.621C12.3732 6.52269 11.2022 5.92009 10.477 4.90474C10.2987 4.65519 10.132 4.42469 9.96973 4.21586Z" fill="#4245D1"/>
<path d="M11.1216 3.1742C11.3194 3.42388 11.4983 3.67498 11.6655 3.90953L11.7346 4.00647C12.1697 4.61568 12.8723 4.97723 13.621 4.97723H16.1515C17.6555 4.97723 19.0286 5.53765 20.0733 6.46105C19.4954 4.55868 17.7276 3.1742 15.6364 3.1742H11.1216Z" fill="#4245D1"/>
</svg>
