<svg width="23" height="23" viewBox="0 0 23 23" fill="none" xmlns="http://www.w3.org/2000/svg">
<path d="M13.5397 10.6188V14.2498H16.7272C17.4787 14.2498 18.1993 14.5483 18.7307 15.0797C19.5997 15.9487 18.5643 17.0832 17.3353 17.0832H4.78584C3.55684 17.0832 2.52139 15.9487 3.39041 15.0797C3.92176 14.5483 4.64243 14.2498 5.39388 14.2498H8.58138V10.6188C7.85077 10.0941 7.30548 9.35108 7.024 8.49673C6.74252 7.64238 6.73935 6.72074 7.01497 5.86448C7.29058 5.00822 7.83075 4.26149 8.55774 3.73176C9.28473 3.20203 10.161 2.91663 11.0605 2.91663C11.9601 2.91663 12.8364 3.20203 13.5634 3.73176C14.2903 4.26149 14.8305 5.00822 15.1061 5.86448C15.3817 6.72074 15.3786 7.64238 15.0971 8.49673C14.8156 9.35108 14.2703 10.0941 13.5397 10.6188ZM3.2689 19.9166C2.87769 19.9166 2.56055 19.5995 2.56055 19.2083C2.56055 18.8171 2.87769 18.4999 3.2689 18.4999H18.8522C19.2434 18.4999 19.5605 18.8171 19.5605 19.2083C19.5605 19.5995 19.2434 19.9166 18.8522 19.9166H3.2689Z" fill="#4245D1"/>
</svg>
