<svg width="23" height="23" viewBox="0 0 23 23" fill="none" xmlns="http://www.w3.org/2000/svg">
<path fill-rule="evenodd" clip-rule="evenodd" d="M12.3606 2.41663C12.41 2.41663 12.4592 2.41831 12.5082 2.42164V6.17244C12.5082 7.37334 13.4817 8.34686 14.6826 8.34686H17.6478V14.0705C17.5041 14.1413 17.3694 14.2364 17.2499 14.356L14.0437 17.5622L13.0586 16.0846C12.5991 15.3953 11.6678 15.209 10.9785 15.6686C10.2892 16.1281 10.1029 17.0594 10.5625 17.7487L11.6744 19.4166H7.56636C5.49208 19.4166 3.81055 17.7351 3.81055 15.6608V6.17244C3.81055 4.09816 5.49208 2.41663 7.56636 2.41663H12.3606ZM7.56636 10.3236C7.23884 10.3236 6.97334 10.5891 6.97334 10.9166C6.97334 11.2441 7.23884 11.5096 7.56636 11.5096H13.8919C14.2195 11.5096 14.485 11.2441 14.485 10.9166C14.485 10.5891 14.2195 10.3236 13.8919 10.3236H7.56636ZM6.97334 14.8701C6.97334 14.5426 7.23884 14.2771 7.56636 14.2771H10.7292C11.0567 14.2771 11.3222 14.5426 11.3222 14.8701C11.3222 15.1976 11.0567 15.4631 10.7292 15.4631H7.56636C7.23884 15.4631 6.97334 15.1976 6.97334 14.8701ZM17.1438 6.93435C17.2039 7.00654 17.2591 7.08221 17.309 7.16081H14.6826C14.1368 7.16081 13.6943 6.7183 13.6943 6.17244V2.87367C13.8168 2.96883 13.9299 3.07765 14.031 3.19902L17.1438 6.93435Z" fill="#4245D1"/>
<path d="M11.8105 16.9166L13.1339 18.9017C13.484 19.4268 14.2269 19.5003 14.6731 19.0541L18.3105 15.4166" stroke="#4245D1" stroke-width="1.5" stroke-linecap="round"/>
</svg>
