<svg width="20" height="20" viewBox="0 0 20 20" fill="none" xmlns="http://www.w3.org/2000/svg">
<path d="M10 0.5C15.2468 0.5 19.5 4.75315 19.5 9.99999C19.5 15.2468 15.2468 19.5 10 19.5C8.38306 19.5024 6.7925 19.0903 5.38016 18.303L5.09041 18.1339L2.21001 18.9813C2.05326 19.0275 1.88731 19.0329 1.7279 18.997C1.56848 18.961 1.42088 18.885 1.29909 18.7761C1.17729 18.6671 1.08534 18.5289 1.03195 18.3744C0.978563 18.22 0.965502 18.0544 0.994008 17.8935L1.01871 17.79L1.86611 14.9096C0.970219 13.4288 0.497707 11.7307 0.500008 9.99999C0.500008 4.75315 4.75316 0.5 10 0.5ZM10 2.4C8.63925 2.39975 7.30339 2.76485 6.13192 3.45717C4.96045 4.14949 3.99634 5.14364 3.34028 6.33579C2.68422 7.52794 2.36026 8.87438 2.40225 10.2345C2.44423 11.5946 2.85061 12.9185 3.57896 14.0679C3.76706 14.3643 3.84781 14.7291 3.78416 15.091L3.74711 15.2459L3.32816 16.6718L4.75411 16.2529C5.16546 16.1313 5.59296 16.2054 5.9321 16.421C6.92802 17.0516 8.05696 17.4419 9.22969 17.5611C10.4024 17.6802 11.5868 17.5249 12.6892 17.1075C13.7916 16.6901 14.7817 16.0219 15.5814 15.1559C16.3811 14.2899 16.9684 13.2497 17.2968 12.1176C17.6253 10.9856 17.6859 9.79259 17.4739 8.63305C17.2619 7.4735 16.783 6.37917 16.0752 5.43656C15.3674 4.49394 14.4501 3.72889 13.3957 3.20188C12.3413 2.67486 11.1788 2.40034 10 2.4ZM7.2469 5.4248C7.35208 5.37925 7.46731 5.36187 7.58124 5.37436C7.69517 5.38685 7.80389 5.42879 7.8967 5.49605C8.3755 5.84565 8.7555 6.31495 9.0823 6.77285L9.39295 7.22315L9.5383 7.4369C9.62217 7.55952 9.66333 7.70635 9.65543 7.8547C9.64753 8.00305 9.59101 8.14467 9.4946 8.2577L9.42335 8.3299L8.54555 8.9816C8.50331 9.01219 8.47358 9.05705 8.46187 9.10788C8.45017 9.15871 8.45729 9.21206 8.4819 9.25804C8.6814 9.61904 9.03385 10.1577 9.43855 10.5624C9.8442 10.9671 10.4076 11.3433 10.7933 11.5646C10.8769 11.6121 10.9776 11.5969 11.046 11.5352L11.0821 11.4924L11.653 10.6232C11.7578 10.4836 11.9126 10.3899 12.0849 10.362C12.2573 10.334 12.4337 10.3738 12.5774 10.4731L13.0932 10.8331C13.6062 11.1989 14.0993 11.5922 14.4897 12.0909C14.5623 12.1845 14.6085 12.2958 14.6233 12.4133C14.6382 12.5308 14.6213 12.6501 14.5743 12.7588C14.1981 13.6366 13.2452 14.3842 12.2553 14.3481L12.1043 14.3386L11.9228 14.3215C11.8886 14.3175 11.8544 14.3131 11.8202 14.3082L11.5941 14.2702C10.7163 14.1049 9.30935 13.6071 7.8511 12.1498C6.3938 10.6916 5.89601 9.28464 5.73071 8.40685L5.69271 8.18075L5.66896 7.98315L5.65661 7.8169C5.6551 7.79316 5.65383 7.76941 5.6528 7.74565C5.6167 6.75385 6.36815 5.801 7.2469 5.4248Z" fill="white"/>
</svg>
